Coordinates
version=1
nRows=54
nColumns=12
inDegrees=yes

Units are S.I. units (second, meters, Newtons, ...)
Angles are in degrees

endheader
time	SC_y	SC_z	SC_x	AC_y	AC_z	AC_x	GH_y	GH_z	GH_yy	EL_x	PS_y
       0.0              -27.81          16.57          23.84          54.92         -6.239          17.31         -6.845          37.87         -70.68          106.2          133.9
   0.01939              -27.81          16.57          23.84          54.92          -6.24          17.31         -6.868          37.87         -70.69          106.2          133.9
   0.03877              -27.81          16.57          23.85          54.92         -6.242          17.31         -6.892          37.86         -70.69          106.2          133.9
   0.05816              -27.81          16.56          23.86          54.92         -6.244           17.3         -6.917          37.86          -70.7          106.1          133.9
   0.07755              -27.81          16.56          23.87          54.92         -6.246           17.3         -6.945          37.86          -70.7          106.1          133.9
   0.09693               -27.8          16.56          23.88          54.92         -6.249          17.29         -6.974          37.85         -70.71          106.1          133.9
    0.1163               -27.8          16.56          23.89          54.92         -6.251          17.29         -7.005          37.85         -70.71          106.1          133.9
    0.1357               -27.8          16.56           23.9          54.91         -6.254          17.29         -7.038          37.84         -70.72          106.1          133.9
    0.1551               -27.8          16.56          23.91          54.91         -6.257          17.28         -7.074          37.83         -70.73          106.1          133.9
    0.1745              -27.79          16.55          23.93          54.91          -6.26          17.27         -7.112          37.83         -70.73          106.0          133.9
    0.1939              -27.79          16.55          23.94          54.91         -6.263          17.27         -7.153          37.82         -70.74          106.0          133.9
    0.2133              -27.79          16.55          23.96          54.91         -6.267          17.26         -7.197          37.82         -70.75          106.0          133.9
    0.2326              -27.78          16.54          23.97           54.9          -6.27          17.26         -7.244          37.81         -70.76          106.0          133.9
     0.252              -27.78          16.54          23.99           54.9         -6.274          17.25         -7.296           37.8         -70.77          106.0          133.8
    0.2714              -27.77          16.54          24.01           54.9         -6.279          17.24         -7.351          37.79         -70.78          105.9          133.8
    0.2908              -27.77          16.53          24.03           54.9         -6.284          17.23         -7.411          37.78         -70.79          105.9          133.8
    0.3102              -27.76          16.53          24.05          54.89         -6.289          17.22         -7.477          37.77         -70.81          105.9          133.8
    0.3296              -27.76          16.53          24.08          54.89         -6.295          17.21         -7.548          37.76         -70.82          105.8          133.8
     0.349              -27.75          16.52          24.11          54.89         -6.301           17.2         -7.626          37.75         -70.83          105.8          133.8
    0.3683              -27.75          16.52          24.14          54.88         -6.308          17.19         -7.711          37.73         -70.85          105.8          133.8
    0.3877              -27.74          16.51          24.17          54.88         -6.315          17.18         -7.805          37.72         -70.87          105.7          133.7
    0.4071              -27.73           16.5           24.2          54.87         -6.323          17.16         -7.908           37.7         -70.89          105.7          133.7
    0.4265              -27.72           16.5          24.24          54.87         -6.332          17.15         -8.022          37.68         -70.91          105.6          133.7
    0.4459              -27.71          16.49          24.29          54.86         -6.342          17.13         -8.148          37.66         -70.93          105.6          133.7
    0.4653               -27.7          16.48          24.34          54.85         -6.354          17.11         -8.288          37.64         -70.96          105.5          133.6
    0.4847              -27.69          16.47          24.39          54.85         -6.366          17.09         -8.445          37.62         -70.99          105.4          133.6
    0.5041              -27.68          16.46          24.45          54.84          -6.38          17.06          -8.62          37.59         -71.03          105.3          133.6
    0.5234              -27.66          16.45          24.52          54.83         -6.396          17.03         -8.817          37.56         -71.06          105.2          133.5
    0.5428              -27.64          16.43           24.6          54.82         -6.413           17.0          -9.04          37.52         -71.11          105.1          133.5
    0.5622              -27.62          16.42          24.69           54.8         -6.434          16.97         -9.293          37.48         -71.16          105.0          133.4
    0.5816               -27.6           16.4          24.79          54.79         -6.457          16.93         -9.581          37.44         -71.21          104.9          133.3
     0.601              -27.58          16.38           24.9          54.77         -6.483          16.88         -9.912          37.39         -71.28          104.7          133.3
    0.6204              -27.55          16.36          25.03          54.75         -6.514          16.83         -10.29          37.32         -71.35          104.5          133.2
    0.6398              -27.51          16.33          25.19          54.73         -6.549          16.76         -10.74          37.25         -71.44          104.3          133.1
    0.6592              -27.47           16.3          25.37          54.71          -6.59          16.69         -11.26          37.17         -71.54          104.1          133.0
    0.6785              -27.42          16.26          25.58          54.68         -6.639           16.6         -11.87          37.07         -71.65          103.8          132.8
    0.6979              -27.37          16.21          25.83          54.64         -6.697           16.5          -12.6          36.96         -71.79          103.4          132.7
    0.7173               -27.3          16.16          26.14           54.6         -6.767          16.38         -13.47          36.82         -71.96          103.0          132.5
    0.7367              -27.22          16.09           26.5          54.55         -6.851          16.23         -14.53          36.65         -72.17          102.5          132.2
    0.7561              -27.12          16.01          26.95          54.48         -6.954          16.05         -15.82          36.45         -72.42          101.9          131.9
    0.7755               -27.0          15.92          27.51          54.41         -7.081          15.82         -17.41           36.2         -72.72          101.1          131.6
    0.7949              -26.84          15.79           28.2          54.31         -7.239          15.54          -19.4          35.88         -73.11          100.2          131.1
    0.8142              -26.65          15.64          29.07          54.18         -7.439          15.19          -21.9          35.49         -73.59          98.96          130.6
    0.8336               -26.4          15.44          30.17          54.03         -7.692          14.74         -25.08          34.98          -74.2          97.43          129.9
     0.853              -26.09          15.19          31.58          53.83         -8.017          14.16         -29.15          34.34         -74.99          95.48          129.0
    0.8724              -25.68          14.87           33.4          53.57         -8.434          13.43         -34.38          33.51          -76.0          92.97          127.8
    0.8918              -25.17          14.45          35.72          53.25         -8.966          12.48         -41.05          32.45         -77.29          89.78          126.3
    0.9112              -24.52          13.93          38.63          52.83         -9.634           11.3         -49.44          31.13          -78.9          85.75          124.4
    0.9306              -23.73           13.3          42.18          52.33         -10.45          9.856         -59.67          29.51         -80.88          80.85          122.2
      0.95              -22.81          12.57           46.3          51.75         -11.39          8.183         -71.52          27.63         -83.17          75.17          119.5
    0.9693              -21.82          11.78          50.76          51.12         -12.42          6.371         -84.35           25.6         -85.64          69.01          116.7
    0.9887              -20.82          10.98          55.22          50.49         -13.44           4.56         -97.18          23.56         -88.12          62.86          113.8
     1.008              -19.91          10.25          59.33          49.91         -14.39          2.887         -109.0          21.69         -90.41          57.18          111.1
     1.028              -19.12          9.617          62.89          49.41          -15.2          1.443         -119.3          20.07         -92.38          52.27          108.9
